<svg width="1001" height="412" viewBox="0 0 1001 412" fill="none" xmlns="http://www.w3.org/2000/svg">
<g clip-path="url(#clip0_1231_5)">
<path d="M925.453 287.924C922.777 287.924 920.934 286.069 920.934 283.401V150.872H875.913C873.236 150.872 871.39 149.025 871.39 146.354V128.073C871.39 125.396 873.237 123.544 875.913 123.544H995.751C998.425 123.544 1000.27 125.398 1000.27 128.073V146.353C1000.27 149.022 998.425 150.872 995.751 150.872H950.733V283.399C950.733 286.069 948.881 287.924 946.214 287.924H925.453ZM580.585 221.758L556.952 153.958L533.107 221.758H580.585ZM633.001 282.569C634.034 285.247 632.386 287.924 629.508 287.924H608.135C605.05 287.924 603.198 286.49 602.167 283.6L590.045 248.682H523.659L511.516 283.6C510.496 286.491 508.639 287.924 505.562 287.924H485.425C482.749 287.924 480.896 285.246 481.925 282.569L537.627 127.662C538.658 124.776 540.507 123.551 543.584 123.551H571.128C574.214 123.551 576.27 124.777 577.297 127.662L633.001 282.569ZM792.665 265.729C805.814 265.729 814.657 259.37 821.853 248.475L788.56 212.719C775.81 219.916 767.584 227.098 767.584 241.485C767.586 255.665 779.091 265.729 792.665 265.729ZM801.913 145.323C791.228 145.323 785.062 152.11 785.062 161.149C785.062 168.134 788.754 174.299 797.185 183.342C811.777 174.912 817.947 169.778 817.947 160.74C817.947 152.309 812.605 145.323 801.913 145.323ZM892.978 282.17C895.647 285.049 894.006 287.924 890.708 287.924H864.604C861.111 287.924 859.261 287.098 857.001 284.424L841.38 267.172C830.899 281.145 816.293 291.621 792.044 291.621C762.036 291.621 738.391 273.541 738.391 242.521C738.391 218.679 751.142 205.937 770.466 195.255C761.003 184.366 756.695 172.859 756.695 162.796C756.695 137.311 774.576 119.849 801.498 119.849C829.042 119.849 845.9 136.087 845.9 160.122C845.9 180.669 831.104 192.165 815.477 200.801L838.502 225.671L851.449 203.061C853.092 200.394 854.943 199.363 858.227 199.363H878.161C881.455 199.363 883.305 201.629 881.256 205.12L858.23 244.564L892.978 282.17ZM687.847 287.924C690.519 287.924 692.378 286.069 692.378 283.401V150.872H737.386C740.058 150.872 741.906 149.025 741.906 146.354V128.073C741.906 125.396 740.058 123.544 737.386 123.544H617.548C614.872 123.544 613.026 125.398 613.026 128.073V146.353C613.026 149.022 614.873 150.872 617.548 150.872H662.556V283.399C662.556 286.069 664.412 287.924 667.081 287.924H687.847Z" fill="white"/>
<path d="M79.528 367.864C114.387 394.848 158.141 411.061 205.612 411.061C257.561 411.061 304.92 391.774 341.064 360.114C341.502 359.727 341.286 359.471 340.854 359.727C324.635 370.559 278.409 394.204 205.614 394.204C142.352 394.204 102.373 380.089 79.796 367.487C79.364 367.274 79.204 367.598 79.528 367.864ZM219.569 378.37C270.167 378.37 325.768 364.577 359.022 337.274C368.122 329.835 376.79 319.934 384.553 306.628C389.022 298.972 393.393 289.876 396.953 280.935C397.111 280.499 396.842 280.287 396.514 280.777C365.59 326.285 276.041 354.67 183.577 354.67C118.22 354.67 47.897 333.77 20.365 293.863C20.094 293.494 19.823 293.652 19.988 294.076C45.636 348.59 123.446 378.37 219.569 378.37ZM164.286 287.934C59.052 287.934 9.43198 238.922 0.430977 205.475C0.319977 204.991 0.000976562 205.097 0.000976562 205.532C0.000976562 216.792 1.12798 231.323 3.06698 240.968C3.99198 245.663 7.81298 253.031 13.415 258.904C38.897 285.465 102.427 322.683 212.451 322.683C362.354 322.683 396.629 272.749 403.628 256.328C408.633 244.584 411.226 223.361 411.226 205.533C411.226 201.219 411.118 197.773 410.955 194.39C410.955 193.841 410.637 193.796 410.527 194.331C403.036 234.512 274.961 287.934 164.286 287.934ZM19.823 117.36C13.793 129.327 7.10898 149.516 5.12198 159.965C4.25098 164.442 4.62198 166.592 6.19198 169.933C18.805 196.694 82.604 239.512 231.422 239.512C322.212 239.512 392.74 217.207 404.166 176.504C406.27 169.011 406.383 161.1 403.68 150.44C400.66 138.528 395.004 124.637 390.217 114.883C390.059 114.565 389.78 114.612 389.837 114.988C391.615 168.374 242.738 202.781 167.621 202.781C86.256 202.781 18.375 170.363 18.375 129.429C18.375 125.496 19.189 121.562 20.205 117.468C20.307 117.094 19.987 117.032 19.823 117.36ZM341.397 51.8129C342.261 53.1669 342.692 54.6119 342.692 56.5569C342.692 79.3929 272.801 119.791 161.544 119.791C79.796 119.791 64.491 89.4649 64.491 70.1789C64.491 63.2849 67.135 56.2309 72.958 49.0669C73.276 48.6409 73.006 48.4769 72.639 48.7939C62.019 57.7939 52.261 67.9209 43.701 78.8529C39.611 84.0229 37.072 88.6029 37.072 91.3469C37.072 131.314 137.288 160.292 230.993 160.292C330.837 160.292 375.397 127.698 375.397 99.0539C375.397 88.8169 371.412 82.8409 361.218 71.2549C354.601 63.7179 348.342 57.5809 341.717 51.5399C341.397 51.2759 341.174 51.4909 341.397 51.8129ZM310.788 28.9819C279.974 10.5119 244.191 0.00390625 205.614 0.00390625C166.768 0.00390625 129.907 10.8789 98.982 29.8379C89.706 35.5469 84.485 40.1219 84.485 46.0029C84.485 63.3389 125 81.9789 196.879 81.9789C268.012 81.9789 323.184 61.5619 323.184 41.9089C323.184 37.2179 319.084 33.9359 310.788 28.9819Z" fill="#00A8E0"/>
</g>
<defs>
<clipPath id="clip0_1231_5">
<rect width="1000.27" height="411.08" fill="white"/>
</clipPath>
</defs>
</svg>
