<svg width="911" height="155" viewBox="0 0 911 155" fill="none" xmlns="http://www.w3.org/2000/svg">
<g clip-path="url(#clip0_1224_57)">
<path d="M857.05 154.384C845.795 154.384 836.016 152.238 827.715 147.947C819.414 143.585 812.942 137.043 808.299 128.32C803.727 119.597 801.44 108.798 801.44 95.9248C801.44 83.6842 803.832 73.132 808.616 64.2682C813.4 55.334 820.012 48.5454 828.454 43.9025C836.896 39.2595 846.498 36.938 857.262 36.938C867.603 36.938 876.783 39.1892 884.803 43.6914C892.822 48.1937 899.048 54.736 903.48 63.3185C907.982 71.9009 910.233 82.1717 910.233 94.1309C910.233 98.4221 910.198 101.834 910.128 104.366H826.027V82.2069H889.762L877.733 86.3223C877.733 80.5537 876.889 75.7349 875.2 71.8658C873.582 67.9263 871.19 64.9717 868.025 63.0019C864.859 61.0322 861.025 60.0473 856.523 60.0473C851.81 60.0473 847.659 61.2081 844.071 63.5295C840.554 65.7807 837.81 69.1574 835.841 73.6596C833.941 78.1619 832.991 83.5787 832.991 89.91V100.779C832.991 107.251 833.976 112.738 835.946 117.24C837.916 121.742 840.73 125.154 844.388 127.476C848.046 129.727 852.372 130.852 857.367 130.852C862.854 130.852 867.392 129.445 870.979 126.632C874.567 123.747 876.818 119.702 877.733 114.496H909.706C908.721 122.657 905.942 129.727 901.37 135.706C896.867 141.686 890.853 146.294 883.325 149.53C875.798 152.766 867.04 154.384 857.05 154.384Z" fill="white"/>
<path d="M759.904 0.00292969H791.877V151.321H759.904V0.00292969Z" fill="white"/>
<path d="M705.496 154.381C699.446 154.381 694.029 153.326 689.246 151.216C684.532 149.105 680.523 145.94 677.216 141.719C673.91 137.428 671.448 132.151 669.83 125.89L673.206 126.84V151.321H641.55V39.9958H673.523V64.8989L669.935 65.5321C671.553 59.5525 674.015 54.4523 677.322 50.2314C680.698 45.9402 684.814 42.669 689.668 40.4178C694.522 38.0964 699.974 36.9356 706.024 36.9356C715.099 36.9356 722.977 39.2923 729.661 44.0056C736.344 48.7189 741.479 55.5075 745.067 64.3713C748.654 73.1648 750.448 83.6115 750.448 95.7113C750.448 107.741 748.619 118.187 744.961 127.051C741.303 135.845 736.062 142.598 729.238 147.311C722.485 152.025 714.571 154.381 705.496 154.381ZM695.577 130.006C700.361 130.006 704.37 128.599 707.606 125.785C710.913 122.971 713.375 118.996 714.993 113.861C716.681 108.726 717.526 102.676 717.526 95.7113C717.526 88.7469 716.681 82.6969 714.993 77.5615C713.375 72.4261 710.913 68.4515 707.606 65.6376C704.37 62.7533 700.361 61.3112 695.577 61.3112C690.864 61.3112 686.819 62.7533 683.442 65.6376C680.136 68.4515 677.638 72.4613 675.95 77.6671C674.262 82.8025 673.417 88.8172 673.417 95.7113C673.417 102.676 674.262 108.726 675.95 113.861C677.638 118.996 680.136 122.971 683.442 125.785C686.819 128.599 690.864 130.006 695.577 130.006ZM641.55 0.00292969H673.523V39.9958H641.55V0.00292969Z" fill="white"/>
<path d="M561.296 154.384C554.331 154.384 548.07 153.012 542.513 150.268C537.026 147.525 532.699 143.621 529.534 138.555C526.438 133.42 524.891 127.441 524.891 120.617C524.891 110.205 527.951 102.256 534.071 96.7689C540.191 91.2114 549.02 87.5885 560.557 85.9002L579.868 83.1566C583.737 82.5938 586.797 81.8903 589.048 81.0462C591.299 80.202 592.952 79.0764 594.007 77.6695C595.063 76.1922 595.59 74.3279 595.59 72.0768C595.59 69.7553 594.957 67.6449 593.691 65.7455C592.495 63.7758 590.666 62.2281 588.204 61.1025C585.812 59.9066 582.892 59.3087 579.445 59.3087C573.958 59.3087 569.562 60.7508 566.255 63.6351C562.949 66.449 561.155 70.3181 560.874 75.2425H527.845C528.127 67.7856 530.378 61.1729 534.599 55.4044C538.89 49.5655 544.834 45.028 552.432 41.792C560.029 38.556 568.823 36.938 578.812 36.938C589.294 36.938 598.158 38.6616 605.404 42.1086C612.65 45.4853 618.102 50.3393 621.76 56.6706C625.488 63.0019 627.352 70.5643 627.352 79.3578V125.787C627.352 130.782 627.704 135.425 628.408 139.716C629.181 143.937 630.272 146.61 631.679 147.736V151.324H598.439C597.666 148.299 597.068 144.887 596.646 141.088C596.223 137.289 595.977 133.279 595.907 129.059L601.077 126.843C599.741 131.837 597.279 136.445 593.691 140.666C590.173 144.816 585.636 148.158 580.079 150.69C574.591 153.153 568.33 154.384 561.296 154.384ZM573.114 130.958C577.616 130.958 581.591 129.973 585.038 128.003C588.485 125.963 591.123 123.149 592.952 119.562C594.852 115.974 595.801 111.894 595.801 107.321V92.7591L598.439 94.2364C596.751 96.4875 594.641 98.2111 592.108 99.407C589.646 100.603 586.304 101.623 582.083 102.467L573.958 104.05C568.542 105.105 564.461 106.723 561.718 108.904C559.045 111.085 557.708 114.145 557.708 118.084C557.708 122.024 559.15 125.154 562.034 127.476C564.919 129.797 568.612 130.958 573.114 130.958Z" fill="white"/>
<path d="M416.143 39.9976H450.121L479.35 135.495H469.115L497.183 39.9976H530.212L491.696 151.323H456.135L416.143 39.9976Z" fill="white"/>
<path d="M366.162 154.384C355.117 154.384 345.409 151.992 337.038 147.208C328.736 142.425 322.3 135.601 317.727 126.737C313.225 117.873 310.974 107.497 310.974 95.6082C310.974 83.7194 313.225 73.3782 317.727 64.5848C322.3 55.7209 328.736 48.8972 337.038 44.1135C345.409 39.3299 355.117 36.938 366.162 36.938C377.206 36.938 386.879 39.3299 395.18 44.1135C403.481 48.8972 409.883 55.7209 414.385 64.5848C418.958 73.3782 421.244 83.7194 421.244 95.6082C421.244 107.497 418.958 117.873 414.385 126.737C409.883 135.601 403.481 142.425 395.18 147.208C386.879 151.992 377.206 154.384 366.162 154.384ZM366.162 129.903C370.805 129.903 374.779 128.636 378.086 126.104C381.392 123.501 383.924 119.667 385.683 114.602C387.442 109.467 388.321 103.135 388.321 95.6082C388.321 84.4229 386.387 75.9459 382.517 70.1774C378.648 64.3385 373.196 61.4191 366.162 61.4191C361.519 61.4191 357.509 62.7205 354.132 65.3234C350.826 67.8559 348.293 71.6899 346.535 76.8253C344.776 81.8903 343.896 88.1513 343.896 95.6082C343.896 103.065 344.776 109.361 346.535 114.496C348.293 119.632 350.826 123.501 354.132 126.104C357.509 128.636 361.519 129.903 366.162 129.903Z" fill="white"/>
<path d="M217.513 0.00195312H250.647V127.741L244.737 120.882C244.737 120.882 261.148 120.882 289.379 120.882C317.609 120.882 313.749 151.32 313.749 151.32H217.513V0.00195312Z" fill="white"/>
<mask id="mask0_1224_57" style="mask-type:alpha" maskUnits="userSpaceOnUse" x="0" y="0" width="149" height="152">
<path fill-rule="evenodd" clip-rule="evenodd" d="M44.6502 0C69.3099 0 89.3004 20.0433 89.3004 44.7679V61.7825H104.16C128.82 61.7825 148.81 81.8258 148.81 106.55C148.81 131.275 128.82 151.318 104.16 151.318H0V44.7679C0 20.0433 19.9906 0 44.6502 0Z" fill="url(#paint0_linear_1224_57)"/>
</mask>
<g mask="url(#mask0_1224_57)">
<g filter="url(#filter0_f_1224_57)">
<path d="M65.2813 181.5C120.915 181.5 166.014 136.4 166.014 80.7667C166.014 25.1334 120.915 -19.9663 65.2813 -19.9663C9.64804 -19.9663 -35.4517 25.1334 -35.4517 80.7667C-35.4517 136.4 9.64804 181.5 65.2813 181.5Z" fill="#4B73FF"/>
</g>
<g filter="url(#filter1_f_1224_57)">
<path d="M76.3489 126.221C147.6 126.221 205.361 81.1217 205.361 25.4884C205.361 -30.1449 147.6 -75.2446 76.3489 -75.2446C5.09755 -75.2446 -52.6631 -30.1449 -52.6631 25.4884C-52.6631 81.1217 5.09755 126.221 76.3489 126.221Z" fill="#FF66F4"/>
</g>
<g filter="url(#filter2_f_1224_57)">
<path d="M97.3927 95.005C153.026 95.005 198.126 55.3977 198.126 6.53962C198.126 -42.3185 153.026 -81.9258 97.3927 -81.9258C41.7594 -81.9258 -3.34033 -42.3185 -3.34033 6.53962C-3.34033 55.3977 41.7594 95.005 97.3927 95.005Z" fill="#FF0105"/>
</g>
<g filter="url(#filter3_f_1224_57)">
<path d="M78.1432 86.0486C111.601 86.0486 138.724 58.9257 138.724 25.4679C138.724 -7.98989 111.601 -35.1128 78.1432 -35.1128C44.6854 -35.1128 17.5625 -7.98989 17.5625 25.4679C17.5625 58.9257 44.6854 86.0486 78.1432 86.0486Z" fill="#FE7B02"/>
</g>
</g>
</g>
<defs>
<filter id="filter0_f_1224_57" x="-80.5963" y="-65.1109" width="291.755" height="291.755" filterUnits="userSpaceOnUse" color-interpolation-filters="sRGB">
<feFlood flood-opacity="0" result="BackgroundImageFix"/>
<feBlend mode="normal" in="SourceGraphic" in2="BackgroundImageFix" result="shape"/>
<feGaussianBlur stdDeviation="22.5723" result="effect1_foregroundBlur_1224_57"/>
</filter>
<filter id="filter1_f_1224_57" x="-97.8077" y="-120.389" width="348.313" height="291.755" filterUnits="userSpaceOnUse" color-interpolation-filters="sRGB">
<feFlood flood-opacity="0" result="BackgroundImageFix"/>
<feBlend mode="normal" in="SourceGraphic" in2="BackgroundImageFix" result="shape"/>
<feGaussianBlur stdDeviation="22.5723" result="effect1_foregroundBlur_1224_57"/>
</filter>
<filter id="filter2_f_1224_57" x="-48.4849" y="-127.07" width="291.755" height="267.22" filterUnits="userSpaceOnUse" color-interpolation-filters="sRGB">
<feFlood flood-opacity="0" result="BackgroundImageFix"/>
<feBlend mode="normal" in="SourceGraphic" in2="BackgroundImageFix" result="shape"/>
<feGaussianBlur stdDeviation="22.5723" result="effect1_foregroundBlur_1224_57"/>
</filter>
<filter id="filter3_f_1224_57" x="-27.5821" y="-80.2574" width="211.451" height="211.451" filterUnits="userSpaceOnUse" color-interpolation-filters="sRGB">
<feFlood flood-opacity="0" result="BackgroundImageFix"/>
<feBlend mode="normal" in="SourceGraphic" in2="BackgroundImageFix" result="shape"/>
<feGaussianBlur stdDeviation="22.5723" result="effect1_foregroundBlur_1224_57"/>
</filter>
<linearGradient id="paint0_linear_1224_57" x1="50.0774" y1="26.5915" x2="95.4144" y2="151.261" gradientUnits="userSpaceOnUse">
<stop offset="0.025" stop-color="#FF8E63"/>
<stop offset="0.56" stop-color="#FF7EB0"/>
<stop offset="0.95" stop-color="#4B73FF"/>
</linearGradient>
<clipPath id="clip0_1224_57">
<rect width="911" height="155" fill="white"/>
</clipPath>
</defs>
</svg>
