<svg width="338" height="72" viewBox="0 0 338 72" fill="none" xmlns="http://www.w3.org/2000/svg">
<g clip-path="url(#clip0_1224_27)">
<path d="M140.4 14.4002V57.6002H132.9V23.7002H132.8L119.4 57.6002H114.4L100.7 23.7002H100.6V57.6002H93.7002V14.4002H104.5L116.9 46.4002H117.1L130.2 14.4002H140.4ZM146.6 17.7002C146.6 16.5002 147 15.5002 147.9 14.7002C148.8 13.9002 149.8 13.5002 151 13.5002C152.3 13.5002 153.4 13.9002 154.2 14.7002C155 15.5002 155.5 16.5002 155.5 17.7002C155.5 18.9002 155.1 19.9002 154.2 20.7002C153.3 21.5002 152.3 21.9002 151 21.9002C149.7 21.9002 148.7 21.5002 147.9 20.7002C147.1 19.8002 146.6 18.8002 146.6 17.7002ZM154.7 26.6002V57.6002H147.4V26.6002H154.7ZM176.8 52.3002C177.9 52.3002 179.1 52.1002 180.4 51.5002C181.7 51.0002 182.9 50.3002 184 49.5002V56.3002C182.8 57.0002 181.5 57.5002 180 57.8002C178.5 58.1002 176.9 58.3002 175.1 58.3002C170.5 58.3002 166.8 56.9002 164 54.0002C161.1 51.1002 159.7 47.4002 159.7 43.0002C159.7 38.0002 161.2 33.9002 164.1 30.7002C167 27.5002 171.1 25.9002 176.5 25.9002C177.9 25.9002 179.3 26.1002 180.6 26.4002C182 26.7002 183.1 27.2002 183.9 27.6002V34.6002C182.8 33.8002 181.6 33.1002 180.5 32.7002C179.3 32.3002 178.1 32.0002 176.9 32.0002C174 32.0002 171.7 32.9002 169.9 34.8002C168.1 36.7002 167.3 39.2002 167.3 42.4002C167.3 45.5002 168.2 48.0002 169.9 49.7002C171.6 51.4002 173.9 52.3002 176.8 52.3002ZM204.7 26.1002C205.3 26.1002 205.8 26.1002 206.3 26.2002C206.8 26.3002 207.2 26.4002 207.5 26.5002V33.9002C207.1 33.6002 206.6 33.3002 205.8 33.1002C205 32.9002 204.2 32.7002 203.1 32.7002C201.3 32.7002 199.8 33.5002 198.6 35.0002C197.4 36.5002 196.7 38.8002 196.7 42.0002V57.6002H189.4V26.6002H196.7V31.5002H196.8C197.5 29.8002 198.5 28.5002 199.8 27.5002C201.2 26.6002 202.8 26.1002 204.7 26.1002ZM207.9 42.6002C207.9 37.5002 209.4 33.4002 212.2 30.4002C215.1 27.4002 219.1 25.9002 224.2 25.9002C229 25.9002 232.8 27.3002 235.5 30.2002C238.2 33.1002 239.6 37.0002 239.6 41.9002C239.6 46.9002 238.1 50.9002 235.3 53.9002C232.4 56.9002 228.5 58.4002 223.5 58.4002C218.7 58.4002 214.9 57.0002 212.1 54.2002C209.3 51.3002 207.9 47.4002 207.9 42.6002ZM215.5 42.3002C215.5 45.5002 216.2 48.0002 217.7 49.7002C219.2 51.4002 221.3 52.3002 224 52.3002C226.6 52.3002 228.7 51.5002 230.1 49.7002C231.5 48.0002 232.2 45.5002 232.2 42.1002C232.2 38.8002 231.5 36.3002 230.1 34.5002C228.7 32.8002 226.6 31.9002 224.1 31.9002C221.4 31.9002 219.4 32.8002 217.9 34.6002C216.2 36.5002 215.5 39.0002 215.5 42.3002ZM250.5 34.8002C250.5 35.8002 250.8 36.7002 251.5 37.3002C252.2 37.9002 253.6 38.6002 255.9 39.5002C258.8 40.7002 260.9 42.0002 262 43.4002C263.2 44.9002 263.8 46.6002 263.8 48.7002C263.8 51.6002 262.7 53.9002 260.4 55.7002C258.2 57.5002 255.1 58.3002 251.3 58.3002C250 58.3002 248.6 58.1002 247 57.8002C245.4 57.5002 244.1 57.1002 243 56.6002V49.4002C244.3 50.3002 245.8 51.1002 247.3 51.6002C248.8 52.1002 250.2 52.4002 251.5 52.4002C253.1 52.4002 254.4 52.2002 255.1 51.7002C255.9 51.2002 256.3 50.5002 256.3 49.4002C256.3 48.4002 255.9 47.6002 255.1 46.8002C254.3 46.1002 252.7 45.3002 250.5 44.4002C247.8 43.3002 245.9 42.0002 244.8 40.6002C243.7 39.2002 243.1 37.4002 243.1 35.2002C243.1 32.4002 244.2 30.1002 246.4 28.3002C248.6 26.5002 251.5 25.6002 255 25.6002C256.1 25.6002 257.3 25.7002 258.6 26.0002C259.9 26.3002 261.1 26.6002 262 26.9002V34.0002C261 33.4002 259.9 32.8002 258.6 32.3002C257.3 31.8002 256 31.6002 254.8 31.6002C253.4 31.6002 252.3 31.9002 251.6 32.4002C250.9 33.1002 250.5 33.8002 250.5 34.8002ZM266.9 42.6002C266.9 37.5002 268.4 33.4002 271.2 30.4002C274.1 27.4002 278.1 25.9002 283.2 25.9002C288 25.9002 291.8 27.3002 294.5 30.2002C297.2 33.1002 298.6 37.0002 298.6 41.9002C298.6 46.9002 297.1 50.9002 294.3 53.9002C291.4 56.9002 287.5 58.4002 282.5 58.4002C277.7 58.4002 273.9 57.0002 271.1 54.2002C268.4 51.3002 266.9 47.4002 266.9 42.6002ZM274.5 42.3002C274.5 45.5002 275.2 48.0002 276.7 49.7002C278.2 51.4002 280.3 52.3002 283 52.3002C285.6 52.3002 287.7 51.5002 289.1 49.7002C290.5 48.0002 291.2 45.5002 291.2 42.1002C291.2 38.8002 290.5 36.3002 289.1 34.5002C287.7 32.8002 285.6 31.9002 283.1 31.9002C280.4 31.9002 278.4 32.8002 276.9 34.6002C275.3 36.5002 274.5 39.0002 274.5 42.3002ZM322.9 32.6002H312V57.6002H304.6V32.6002H299.4V26.6002H304.6V22.3002C304.6 19.1002 305.7 16.4002 307.8 14.3002C309.9 12.2002 312.6 11.2002 315.9 11.2002C316.8 11.2002 317.6 11.3002 318.3 11.3002C319 11.3002 319.6 11.5002 320.1 11.7002V18.0002C319.9 17.9002 319.4 17.7002 318.8 17.5002C318.2 17.3002 317.5 17.2002 316.7 17.2002C315.2 17.2002 314 17.7002 313.2 18.6002C312.4 19.5002 312 21.0002 312 22.8002V26.5002H322.9V19.5002L330.2 17.3002V26.5002H337.6V32.5002H330.2V47.0002C330.2 48.9002 330.6 50.2002 331.2 51.0002C331.9 51.8002 333 52.2002 334.5 52.2002C334.9 52.2002 335.4 52.1002 336 51.9002C336.6 51.7002 337.1 51.5002 337.5 51.2002V57.2002C337 57.5002 336.3 57.7002 335.2 57.9002C334.1 58.1002 333.1 58.2002 332 58.2002C328.9 58.2002 326.6 57.4002 325.1 55.8002C323.6 54.2002 322.8 51.7002 322.8 48.4002L322.9 32.6002Z" fill="white"/>
<path d="M34.2 0H0V34.2H34.2V0Z" fill="#F25022"/>
<path d="M71.9998 0H37.7998V34.2H71.9998V0Z" fill="#7FBA00"/>
<path d="M34.2 37.7998H0V71.9998H34.2V37.7998Z" fill="#00A4EF"/>
<path d="M71.9998 37.7998H37.7998V71.9998H71.9998V37.7998Z" fill="#FFB900"/>
</g>
<defs>
<clipPath id="clip0_1224_27">
<rect width="337.6" height="72" fill="white"/>
</clipPath>
</defs>
</svg>
