<svg width="150" height="36" viewBox="0 0 150 36" fill="none" xmlns="http://www.w3.org/2000/svg">
<g clip-path="url(#clip0_1224_44)">
<path d="M23.566 1.398L14.071 10.902H23.566V1.398ZM23.566 1.398V4M14.049 0V36M23.566 20.404L14.071 10.9M23.566 20.404V34.029L14.071 24.525M23.566 20.404L14.07 10.9M23.566 20.404L23.565 24.47H27.64V10.9H14.07M14.071 10.9V24.525M14.071 10.9L4.575 20.404M14.071 24.525L4.575 34.029V20.404M4.575 20.404L4.574 24.47H0.5V10.9H14.07M4.575 20.404L14.07 10.9M14.07 10.902L4.574 1.398V10.902H14.07Z" stroke="#20808D" stroke-miterlimit="10"/>
<path d="M55.46 13.0281C56.053 11.9191 56.882 11.0651 57.951 10.4641C59.018 9.86514 60.27 9.56514 61.706 9.56514C63.142 9.56514 64.331 9.86014 65.326 10.4511C66.322 11.0421 67.067 11.8251 67.56 12.8001C68.053 13.7761 68.3 14.8451 68.3 16.0071V17.6171H57.129C57.219 19.0131 57.69 20.1231 58.542 20.9461C59.394 21.7701 60.538 22.1811 61.975 22.1811C63.141 22.1811 64.035 21.9441 64.653 21.4701C65.273 20.9961 65.725 20.3391 66.013 19.4971H68.571C68.23 20.8031 67.535 21.9361 66.485 22.8931C65.436 23.8511 63.932 24.3291 61.976 24.3291C60.504 24.3291 59.207 24.0291 58.085 23.4301C56.964 22.8311 56.097 21.9761 55.487 20.8661C54.877 19.7561 54.572 18.4501 54.572 16.9461C54.572 15.4421 54.868 14.1371 55.461 13.0271L55.46 13.0281ZM65.609 15.6041C65.609 14.3871 65.295 13.4351 64.667 12.7451C64.039 12.0561 63.052 11.7121 61.705 11.7121C60.449 11.7121 59.421 12.0471 58.623 12.7181C57.824 13.3891 57.335 14.3521 57.156 15.6041H65.609ZM71.656 9.96714V12.1951C71.656 12.3211 71.719 12.3831 71.845 12.3831C71.917 12.3831 71.97 12.3651 72.007 12.3291C72.044 12.2931 72.079 12.2221 72.114 12.1151C72.58 10.6481 73.738 9.91414 75.587 9.91414H76.771V12.3291H75.236C74.033 12.3291 73.136 12.6151 72.543 13.1881C71.95 13.7611 71.654 14.7001 71.654 16.0071V23.9261H69.231V9.96614H71.656V9.96714ZM90.998 20.9861C90.361 22.1041 89.535 22.9411 88.521 23.4951C87.507 24.0491 86.416 24.3271 85.25 24.3271C82.953 24.3271 81.337 23.4151 80.404 21.5891C80.332 21.4471 80.242 21.3751 80.135 21.3751C80.028 21.3751 79.973 21.4291 79.973 21.5361V29.0251H77.55V9.96814H79.973V12.3571C79.973 12.4641 80.027 12.5181 80.135 12.5181C80.243 12.5181 80.332 12.4461 80.404 12.3041C81.337 10.4781 82.953 9.56614 85.25 9.56614C86.416 9.56614 87.507 9.84414 88.521 10.3981C89.535 10.9521 90.36 11.7891 90.998 12.9081C91.635 14.0261 91.954 15.3741 91.954 16.9471C91.954 18.5201 91.635 19.8671 90.998 20.9861ZM88.198 13.0941C87.309 12.1721 86.138 11.7111 84.685 11.7111C83.232 11.7111 82.06 12.1721 81.172 13.0941C80.283 14.0161 79.957 15.3001 79.957 16.9461C79.957 18.5921 80.283 19.8771 81.172 20.7981C82.061 21.7201 83.232 22.1811 84.685 22.1811C86.138 22.1811 87.31 21.7211 88.198 20.7981C89.087 19.8761 89.531 18.5921 89.531 16.9461C89.531 15.3001 89.087 14.0161 88.198 13.0941ZM95.47 4.59814V23.9251H93.047V4.60014H95.47V4.59814ZM97.465 13.0271C98.057 11.9181 98.887 11.0641 99.956 10.4631C101.023 9.86414 102.275 9.56414 103.71 9.56414C105.145 9.56414 106.336 9.85914 107.331 10.4501C108.327 11.0411 109.072 11.8241 109.565 12.7991C110.059 13.7751 110.305 14.8441 110.305 16.0061V17.6161H99.134C99.224 19.0121 99.695 20.1221 100.547 20.9451C101.399 21.7691 102.543 22.1801 103.98 22.1801C105.146 22.1801 106.039 21.9431 106.658 21.4691C107.278 20.9951 107.73 20.3381 108.018 19.4961H110.576C110.235 20.8021 109.539 21.9351 108.49 22.8921C107.441 23.8501 105.937 24.3281 103.981 24.3281C102.509 24.3281 101.212 24.0281 100.09 23.4291C98.969 22.8301 98.102 21.9751 97.492 20.8651C96.882 19.7551 96.577 18.4491 96.577 16.9451C96.577 15.4411 96.873 14.1361 97.466 13.0261H97.465V13.0271ZM107.614 15.6031C107.614 14.3861 107.3 13.4341 106.672 12.7441C106.044 12.0551 105.057 11.7111 103.71 11.7111C102.455 11.7111 101.426 12.0461 100.628 12.7171C99.829 13.3881 99.341 14.3511 99.161 15.6031H107.614ZM109.227 23.3881L114.772 16.5421L110.223 10.5031V9.96614H112.888L116.685 15.1731L120.777 9.96614H123.495V10.5301L118.273 16.9461L123.092 23.3881V23.9251H120.481L116.362 18.3151L111.948 23.9251H109.229V23.3881H109.227ZM127.013 5.42314V8.44414H124.183V5.42314H127.013ZM126.866 23.9261H124.442V9.96714H126.866V23.9261ZM127.63 9.96714H130.266V6.20914H132.69V9.96714H135.464L136.145 12.0131H132.69V18.6911C132.69 19.6031 132.667 20.2791 132.622 20.7181C132.577 21.1571 132.555 21.4211 132.555 21.5101C132.555 21.6361 132.59 21.7341 132.662 21.8051C132.734 21.8771 132.832 21.9121 132.959 21.9121C133.048 21.9121 133.313 21.8901 133.753 21.8451C134.192 21.8001 134.87 21.7781 135.786 21.7781H136.728V23.9251H134.844C133.3 23.9251 132.151 23.5501 131.398 22.7971C130.645 22.0451 130.267 20.9011 130.267 19.3611V12.0121H127.632V9.96614H127.63V9.96714ZM136.194 9.96714H138.664L142.675 21.6781C142.73 21.8221 142.815 22.0111 143.09 22.0111C143.365 22.0111 143.45 21.8211 143.504 21.6781L147.515 9.96714H149.819V10.5041L144.801 25.5631C144.37 26.8521 143.765 27.7511 142.985 28.2611C142.204 28.7711 141.297 29.0261 139.788 29.0261H137.204V26.8791H139.17C139.798 26.8791 140.309 26.9011 140.704 26.9461C141.098 26.9911 141.35 27.0131 141.458 27.0131C141.763 27.0131 141.969 26.8791 142.078 26.6111L142.832 24.5711C142.922 24.3571 142.93 24.1961 142.859 24.0871C142.823 24.0151 142.779 23.9701 142.725 23.9531C142.671 23.9351 142.59 23.9261 142.483 23.9261H140.841L136.196 9.96814H136.194V9.96714ZM53.032 21.0091C52.395 22.1271 51.569 22.9641 50.555 23.5181C49.541 24.0721 48.45 24.3501 47.284 24.3501C44.987 24.3501 43.371 23.4381 42.438 21.6121C42.366 21.4701 42.276 21.3981 42.169 21.3981C42.062 21.3981 42.007 21.4521 42.007 21.5591V29.0481H39.584V9.99114H42.007V12.3801C42.007 12.4871 42.061 12.5411 42.169 12.5411C42.277 12.5411 42.366 12.4691 42.438 12.3271C43.37 10.5011 44.987 9.58914 47.284 9.58914C48.45 9.58914 49.541 9.86714 50.555 10.4211C51.569 10.9751 52.394 11.8121 53.032 12.9301C53.669 14.0481 53.988 15.3961 53.988 16.9701C53.988 18.5441 53.669 19.8911 53.032 21.0091ZM50.232 13.1171C49.343 12.1951 48.172 11.7341 46.719 11.7341C45.266 11.7341 44.094 12.1951 43.206 13.1171C42.317 14.0391 41.991 15.3231 41.991 16.9691C41.991 18.6151 42.317 19.9001 43.206 20.8211C44.095 21.7431 45.266 22.2041 46.719 22.2041C48.172 22.2041 49.344 21.7441 50.232 20.8211C51.121 19.8991 51.565 18.6151 51.565 16.9691C51.565 15.3231 51.121 14.0391 50.232 13.1171Z" fill="white"/>
</g>
<defs>
<clipPath id="clip0_1224_44">
<rect width="149.82" height="36" fill="white"/>
</clipPath>
</defs>
</svg>
