<svg width="2500" height="676" viewBox="0 0 2500 676" fill="none" xmlns="http://www.w3.org/2000/svg">
<path d="M589.109 463.433L588.752 462.324L810.329 259.472V161.736H454.848V259.472H667.183L667.531 260.408L448.115 463.433V561.169H813.898V463.443L589.109 463.433ZM1032.14 152.437C991.137 152.437 957.719 158.611 931.893 170.988C907.832 181.767 887.565 199.527 873.72 221.964C860.475 244.545 852.157 269.673 849.313 295.698L957.169 310.863C961.076 287.874 968.88 271.589 980.583 261.99C993.89 251.952 1010.29 246.881 1026.94 247.654C1048.83 247.654 1064.71 253.501 1074.58 265.212C1084.36 276.914 1089.33 293.122 1089.33 314.49V325.141H985.618C932.829 325.141 894.906 336.843 871.839 360.257C848.782 383.661 837.273 414.57 837.312 452.966C837.312 492.288 848.821 521.558 871.849 540.756C894.867 559.944 923.818 569.485 958.693 569.369C1001.96 569.369 1035.25 554.484 1058.54 524.703C1072.3 506.41 1082.12 485.472 1087.4 463.202H1091.31L1106.18 560.938H1203.92V313.429C1203.92 262.28 1190.44 222.659 1163.47 194.576C1136.52 166.473 1092.73 152.427 1032.14 152.427V152.437ZM1066.33 457.52C1050.81 470.457 1030.51 476.891 1005.22 476.891C984.383 476.891 969.913 473.245 961.799 465.951C957.845 462.5 954.7 458.221 952.586 453.418C950.472 448.614 949.441 443.404 949.567 438.158C949.337 433.208 950.116 428.264 951.857 423.625C953.599 418.986 956.266 414.75 959.696 411.175C963.404 407.695 967.778 405.004 972.555 403.263C977.333 401.522 982.413 400.767 987.49 401.045H1089.5V407.779C1089.71 417.292 1087.72 426.726 1083.71 435.352C1079.69 443.978 1073.74 451.556 1066.33 457.52ZM1794.9 161.736H1679.44V561.227H1794.9V161.736ZM2476.66 161.736C2444.04 161.736 2418.33 173.246 2399.53 196.273C2386.04 212.809 2375.77 237.255 2368.75 269.592H2365.35L2350.25 161.736H2251.64V561.169H2367.12V356.33C2367.12 330.505 2373.16 310.699 2385.25 296.932C2397.35 283.156 2419.67 276.268 2452.21 276.268H2496.03V161.736H2476.66ZM2137.04 174.789C2110.09 158.755 2076.08 150.758 2035.04 150.797C1970.42 150.797 1919.85 169.184 1883.34 205.979C1846.81 242.773 1828.56 293.498 1828.56 358.154C1827.63 397.239 1836.16 435.97 1853.43 471.045C1869.24 502.302 1893.86 528.244 1924.24 545.666C1954.83 563.34 1991.21 572.196 2033.4 572.235C2069.88 572.235 2100.35 566.62 2124.81 555.381C2147.81 545.288 2167.84 529.468 2182.99 509.431C2197.41 489.765 2208.12 467.632 2214.59 444.12L2115.1 416.268C2110.91 431.555 2102.84 445.504 2091.69 456.767C2080.45 467.997 2061.62 473.621 2035.21 473.621C2003.8 473.621 1980.39 464.63 1964.98 446.638C1953.79 433.643 1946.78 415.091 1943.68 391.041H2216.11C2217.23 379.802 2217.81 370.377 2217.81 362.775V337.894C2218.46 304.481 2211.57 271.352 2197.63 240.979C2184.56 213.313 2163.45 190.241 2137.04 174.789ZM2031.7 246.014C2078.52 246.014 2105.06 269.052 2111.35 315.137H1945.73C1948.35 299.758 1954.72 285.263 1964.28 272.93C1979.45 254.948 2001.93 245.976 2031.7 246.014ZM1738.43 0.734296C1729.74 0.436721 1721.08 1.88898 1712.97 5.00471C1704.86 8.12044 1697.45 12.836 1691.2 18.871C1685.04 24.9707 1680.21 32.2811 1677.01 40.3409C1673.82 48.4007 1672.33 57.0349 1672.64 65.6986C1672.33 74.4184 1673.82 83.1094 1677.01 91.2281C1680.21 99.3468 1685.05 106.719 1691.22 112.883C1697.4 119.052 1704.77 123.882 1712.89 127.071C1721.02 130.26 1729.71 131.739 1738.43 131.415C1747.09 131.741 1755.73 130.26 1763.79 127.067C1771.85 123.873 1779.16 119.036 1785.25 112.864C1791.29 106.629 1796.01 99.2352 1799.12 91.1274C1802.23 83.0196 1803.66 74.3662 1803.33 65.6889C1803.74 57.0659 1802.34 48.4537 1799.22 40.4034C1796.1 32.3531 1791.34 25.0422 1785.24 18.9386C1779.13 12.8298 1771.82 8.06085 1763.77 4.93633C1755.72 1.81181 1747.11 0.400376 1738.49 0.79218L1738.43 0.734296ZM1499.88 150.797C1460.55 150.797 1428.95 163.145 1405.07 187.842C1387.39 206.133 1374.42 233.454 1366.15 269.776H1362.47L1347.36 161.92H1248.75V676H1364.21V464.253H1368.43C1371.95 478.374 1376.89 492.101 1383.18 505.225C1392.95 526.605 1408.97 544.52 1429.13 556.606C1450.02 568.013 1473.57 573.688 1497.36 573.055C1545.71 573.055 1582.51 554.223 1607.8 516.58C1633.08 478.927 1645.73 426.388 1645.73 358.964C1645.73 293.845 1633.49 242.869 1609.03 206.036C1584.56 169.213 1548.19 150.797 1499.88 150.797ZM1511.58 440.261C1498.12 459.768 1477.06 469.521 1448.38 469.521C1436.55 470.066 1424.77 467.787 1414 462.871C1403.23 457.956 1393.79 450.545 1386.46 441.255C1371.51 422.491 1364.06 396.791 1364.11 364.173V356.571C1364.11 323.443 1371.55 298.08 1386.46 280.484C1401.35 262.887 1422.01 254.186 1448.38 254.379C1477.57 254.379 1498.76 263.64 1512 282.182C1525.22 300.714 1531.83 326.559 1531.83 359.726C1531.92 394.022 1525.21 420.87 1511.7 440.261H1511.58Z" fill="white"/>
<path d="M403.458 463.434H3.96729V561.295H403.458V463.434Z" fill="#FF4F00"/>
</svg>
