<svg width="208" height="48" viewBox="0 0 208 48" fill="none" xmlns="http://www.w3.org/2000/svg">
<path d="M36.945 19.2106V7.82791C36.945 6.60645 35.954 5.63281 34.7508 5.63281H23.3734C21.5862 5.63281 19.8168 5.98683 18.1713 6.65953C16.5257 7.34993 15.0217 8.34127 13.7654 9.61585L13.6769 9.70437C12.0137 11.3861 10.8282 13.475 10.2266 15.7763C11.3059 15.4931 12.4206 15.3514 13.5353 15.3337C16.508 15.2983 19.4276 16.2543 21.7986 18.0422C23.9396 19.6354 25.5674 21.8306 26.4522 24.362C27.3722 26.9288 27.4784 29.7258 26.7884 32.3634C29.0708 31.7616 31.1766 30.5756 32.8576 28.9116L32.946 28.823C34.2022 27.5662 35.2108 26.0614 35.9008 24.415C36.591 22.7688 36.9272 20.9986 36.9272 19.2106H36.945Z" fill="#18E299"/>
<path d="M9.8868 19.0188C9.90442 15.5269 11.297 12.1761 13.7472 9.67188L4.28116 19.1423C4.24592 19.1775 4.21064 19.1952 4.17538 19.2304C1.86617 21.523 0.47362 24.5918 0.244462 27.8366C0.0329309 30.87 0.826156 33.868 2.5184 36.3724C2.67982 36.6112 3.1178 36.6898 3.36458 36.4606L9.16404 30.676C10.9797 28.8596 11.5438 26.1612 10.68 23.7452C10.1336 22.2462 9.86918 20.6414 9.8868 19.0188Z" fill="#0C8C5E"/>
<path d="M32.889 28.8242C31.0734 30.6054 28.7994 31.84 26.3316 32.3866C23.846 32.9334 21.2724 32.7746 18.8751 31.9282C18.8751 31.9282 18.8575 31.9282 18.8398 31.9282C16.4249 31.064 13.7279 31.6282 11.9122 33.4272L6.11268 39.2116C5.8659 39.4586 5.90114 39.8642 6.20082 40.0582C8.70394 41.7336 11.7007 42.5448 14.7326 42.3332C17.9761 42.104 21.0256 40.7106 23.3348 38.4004L23.423 38.3122L32.889 28.8418V28.8242Z" fill="#0C8C5E"/>
<path d="M192.471 47H185.368L190.374 35.7026L180.363 13.2031H187.514L193.347 27.3074C193.551 27.8004 194.249 27.7994 194.452 27.306L200.24 13.2031H207.438L192.471 47Z" fill="white"/>
<path d="M170.897 37.0372V18.9233H166.082V13.2031H170.897V10.1046C170.897 7.27632 171.755 5.0518 173.471 3.43108C175.187 1.81036 177.364 1 180.001 1C181.622 1 183.004 1.17478 184.148 1.52435V7.29222C183.386 7.0062 182.496 6.8632 181.479 6.8632C180.049 6.8632 179.016 7.18098 178.38 7.81656C177.745 8.42036 177.427 9.45318 177.427 10.915V13.2031H184.148V18.9233H177.427V37.0372H170.897Z" fill="white"/>
<path d="M160.241 9.29428C159.129 9.29428 158.159 8.89704 157.333 8.10258C156.507 7.27632 156.094 6.29118 156.094 5.14714C156.094 4.0031 156.507 3.03384 157.333 2.23938C158.159 1.41313 159.129 1 160.241 1C161.417 1 162.402 1.41313 163.196 2.23938C164.023 3.03384 164.436 4.0031 164.436 5.14714C164.436 6.29118 164.023 7.27632 163.196 8.10258C162.402 8.89704 161.417 9.29428 160.241 9.29428ZM156.999 37.0372V13.2031H163.53V37.0372H156.999Z" fill="white"/>
<path d="M145.625 37.0364V1.28516H152.156V37.0364H145.625Z" fill="white"/>
<path d="M138.251 37.3242C135.582 37.3242 133.389 36.5932 131.673 35.1314C129.989 33.6378 129.147 31.4928 129.147 28.6962V18.9242H124.332V13.204H129.147V6.57812H135.677V13.204H142.398V18.9242H135.677V27.4092C135.677 28.871 135.995 29.9196 136.63 30.5552C137.266 31.159 138.299 31.461 139.729 31.461C140.746 31.461 141.636 31.318 142.398 31.032V36.7998C141.254 37.1494 139.872 37.3242 138.251 37.3242Z" fill="white"/>
<path d="M99.8867 37.0382V13.204H106.417V14.9461C106.417 15.2407 106.818 15.371 107.013 15.1503C108.469 13.5032 110.543 12.6797 113.234 12.6797C116.094 12.6797 118.334 13.6331 119.955 15.5398C121.608 17.4147 122.434 19.9253 122.434 23.0714V37.0382H115.903V24.1678C115.903 22.42 115.538 21.0694 114.807 20.116C114.076 19.1308 113.043 18.6382 111.708 18.6382C110.12 18.6382 108.832 19.2102 107.847 20.3542C106.894 21.4984 106.417 23.1826 106.417 25.4072V37.0382H99.8867Z" fill="white"/>
<path d="M91.7566 9.29428C90.6442 9.29428 89.675 8.89704 88.8488 8.10258C88.0226 7.27632 87.6094 6.29118 87.6094 5.14714C87.6094 4.0031 88.0226 3.03384 88.8488 2.23938C89.675 1.41313 90.6442 1 91.7566 1C92.9324 1 93.9174 1.41313 94.712 2.23938C95.5382 3.03384 95.9514 4.0031 95.9514 5.14714C95.9514 6.29118 95.5382 7.27632 94.712 8.10258C93.9174 8.89704 92.9324 9.29428 91.7566 9.29428ZM88.515 37.0372V13.2031H95.0456V37.0372H88.515Z" fill="white"/>
<path d="M77.4294 37.0382V24.3108C77.4294 20.529 76.19 18.6382 73.7114 18.6382C72.2812 18.6382 71.1372 19.1785 70.2792 20.259C69.453 21.3394 69.008 22.9442 68.9444 25.0734V37.0382H62.414V24.3108C62.414 20.529 61.1746 18.6382 58.6958 18.6382C57.234 18.6382 56.074 19.2102 55.216 20.3542C54.358 21.4984 53.929 23.1826 53.929 25.4072V37.0382H47.3984V13.204H53.929V14.9633C53.929 15.2564 54.323 15.3854 54.5156 15.1644C55.9582 13.5079 57.876 12.6797 60.2688 12.6797C63.4134 12.6797 65.7818 13.9779 67.374 16.5743C67.4996 16.7792 67.8088 16.776 67.9336 16.5707C68.622 15.4393 69.5786 14.5395 70.8036 13.8714C72.2018 13.0769 73.616 12.6797 75.046 12.6797C77.8744 12.6797 80.067 13.6172 81.6242 15.4921C83.1814 17.3671 83.96 19.9412 83.96 23.2144V37.0382H77.4294Z" fill="white"/>
</svg>
